# xmcd
#
# Track frame offsets:
#	150
#	12442
#	24080
#	36880
#	48302
#	59912
#	70300
#	83297
#	97492
#	109050
#	123220
#	138105
#	150810
#	158372
#
# Disc length: 2257 seconds
# Revision: 0
# Processed by: cddbd v1.5.2PL0 Copyright (c) Steve Scherf et al.
# Submitted via: dBpowerAMP V12.0
#
DISCID=a408cf0e
DTITLE=Ray Charles - Blues
DYEAR=2000
DGENRE=Blues
TTITLE0=Honey Honey
TTITLE1=What Have I Done
TTITLE2=You'll Allways Miss the Water
TTITLE3=She's on the Ball
TTITLE4=How Long
TTITLE5=Ain't that Fine
TTITLE6=Don't Put all Your Dreams in Your Basket
TTITLE7=Kiss me Baby
TTITLE8=Guitar Blues
TTITLE9=Walkin' and Talkin'
TTITLE10=I'm Wonderin' and Wonderin'
TTITLE11=Lonely Boy
TTITLE12=Ray's Blues
TTITLE13=I'll do Anything but Work
EXTD=
EXTT0=
EXTT1=
EXTT2=
EXTT3=
EXTT4=
EXTT5=
EXTT6=
EXTT7=
EXTT8=
EXTT9=
EXTT10=
EXTT11=
EXTT12=
EXTT13=
PLAYORDER=
